<svg width="888" height="638" viewBox="0 0 888 638" fill="none" xmlns="http://www.w3.org/2000/svg">
<g clip-path="url(#clip0)">
<path d="M174.024 107.128C191.143 107.128 205.021 93.2505 205.021 76.1315C205.021 59.0125 191.143 45.1348 174.024 45.1348C156.905 45.1348 143.027 59.0125 143.027 76.1315C143.027 93.2505 156.905 107.128 174.024 107.128Z" fill="#2F2E41"/>
<path d="M79.6152 449.307L98.659 383.262L105.142 385.288C105.142 385.288 97.4435 434.72 85.2879 447.281L79.6152 449.307Z" fill="#2F2E41"/>
<path d="M152.143 94.7688C152.143 94.7688 154.574 120.701 148.901 127.994C143.229 135.287 152.548 149.469 152.548 149.469L169.566 169.728L194.687 158.383L198.334 137.313L195.903 122.727C195.903 122.727 187.394 114.218 191.041 98.8206C194.687 83.4235 152.143 94.7688 152.143 94.7688Z" fill="#FFB9B9"/>
<path opacity="0.1" d="M152.143 94.7688C152.143 94.7688 154.574 120.701 148.901 127.994C143.229 135.287 152.548 149.469 152.548 149.469L169.566 169.728L194.687 158.383L198.334 137.313L195.903 122.727C195.903 122.727 187.394 114.218 191.041 98.8206C194.687 83.4235 152.143 94.7688 152.143 94.7688Z" fill="black"/>
<path d="M166.73 579.778V596.39L189.015 600.847L186.989 573.295L166.73 579.778Z" fill="#FFB9B9"/>
<path d="M233.586 573.295L228.723 596.39L238.448 603.278L255.466 590.718L253.44 570.863L233.586 573.295Z" fill="#FFB9B9"/>
<path d="M191.04 598.822C191.04 598.822 182.531 584.44 166.729 593.454C166.729 593.454 163.893 609.357 161.056 610.573C158.22 611.788 142.418 634.884 161.056 636.91C179.695 638.936 189.014 632.858 189.014 632.858C189.014 632.858 185.368 635.996 191.04 634.375C196.713 632.754 194.282 623.84 194.282 623.84L191.04 598.822Z" fill="#2F2E41"/>
<path d="M246.551 589.097C246.551 589.097 233.99 598.011 231.964 593.959C229.938 589.907 226.696 590.312 226.696 590.312C226.696 590.312 215.351 633.08 222.645 635.106C227.341 636.262 232.274 636.008 236.826 634.374C236.826 634.374 246.551 627.563 246.551 632.831C246.551 638.098 273.698 637.719 285.043 637.314C296.388 636.909 290.311 628.4 290.311 628.4L275.319 613.813L258.301 589.097C258.301 589.097 250.602 582.208 246.551 589.097Z" fill="#2F2E41"/>
<path d="M127.021 318.026L144.039 481.316C144.039 481.316 153.359 580.992 154.979 582.613C156.6 584.234 167.135 589.501 190.231 582.613L184.963 452.143L194.688 371.106L216.973 427.021C216.973 427.021 222.24 577.345 225.887 577.345C229.534 577.345 251.819 584.639 257.086 575.725C262.354 566.811 261.543 470.781 261.543 470.781C261.543 470.781 259.112 319.242 241.284 314.38C223.456 309.517 127.021 318.026 127.021 318.026Z" fill="#2F2E41"/>
<path d="M174.022 109.761C189.463 109.761 201.98 97.2442 201.98 81.8036C201.98 66.3629 189.463 53.8457 174.022 53.8457C158.582 53.8457 146.064 66.3629 146.064 81.8036C146.064 97.2442 158.582 109.761 174.022 109.761Z" fill="#FFB9B9"/>
<path d="M175.645 159.599C175.645 159.599 172.808 142.176 172.808 138.934C172.808 135.693 160.248 133.667 160.248 133.667C160.248 133.667 150.523 122.727 148.497 124.348C146.471 125.968 115.677 146.633 110.815 149.469C105.953 152.306 100.685 164.461 101.09 165.272C101.496 166.082 126.617 218.756 126.617 218.756C126.617 218.756 137.557 251.171 129.859 268.189C122.16 285.207 112.436 318.837 126.617 325.725C140.799 332.613 209.68 347.605 222.241 334.639C234.802 321.673 243.716 318.027 246.957 318.027C250.199 318.027 233.586 261.706 237.233 256.438C240.88 251.171 235.612 218.351 235.612 218.351L254.251 166.082C254.251 166.082 252.63 136.909 215.758 130.426L193.7 119.73L175.645 159.599Z" fill="#575A89"/>
<path d="M99.874 325.32C99.874 325.32 97.848 344.769 97.848 350.442C97.848 356.114 88.1235 389.34 102.305 393.391C116.486 397.443 115.271 349.226 115.271 349.226V324.51L99.874 325.32Z" fill="#FFB9B9"/>
<path d="M268.025 307.088C268.025 307.088 270.457 325.726 269.241 329.778C268.025 333.83 280.991 369.081 263.568 371.107C246.145 373.133 250.602 328.968 250.602 328.968V307.088L268.025 307.088Z" fill="#FFB9B9"/>
<path d="M96.2266 442.824L107.977 380.426H111.624C114.173 383.713 115.846 387.594 116.484 391.705C117.122 395.816 116.704 400.021 115.27 403.927C110.408 417.703 106.356 442.824 106.356 442.824H96.2266Z" fill="#2F2E41"/>
<path d="M107.167 160.41L101.089 165.272C101.089 165.272 92.9857 294.122 95.0116 303.846C97.0376 313.571 87.7183 327.347 95.822 328.562C103.926 329.778 113.65 335.045 118.107 331.804C122.564 328.562 123.375 316.812 124.995 313.976C126.616 311.139 129.452 277.509 129.452 277.509C129.452 277.509 137.961 243.879 132.694 218.757C127.426 193.635 122.564 168.109 122.564 168.109L107.167 160.41Z" fill="#575A89"/>
<path d="M235.612 150.279L254.25 166.082L268.432 248.74C268.432 248.74 277.346 313.164 270.458 313.975C263.57 314.785 253.035 312.759 248.578 313.975C244.121 315.19 240.474 311.949 240.474 311.949C240.474 311.949 235.612 286.017 235.612 285.612C235.612 285.206 232.37 255.628 232.37 255.628L228.318 222.402L234.396 185.936L235.612 150.279Z" fill="#575A89"/>
<path d="M147.686 532.777C147.686 532.777 145.053 540.341 141.422 550.641C139.737 555.43 137.836 560.815 135.879 566.306C134.619 569.855 133.339 573.449 132.079 576.958C130.069 582.57 128.116 587.959 126.41 592.586C124.157 598.692 122.33 603.477 121.349 605.71C116.892 615.84 35.4499 599.632 28.9669 595.58C22.4839 591.529 20.8632 577.752 20.0528 558.303C20.0487 558.202 20.0447 558.101 20.0447 557.999C19.9393 554.073 20.9401 548.226 22.6136 541.366C23.4483 537.939 24.4531 534.259 25.5714 530.439C27.0706 525.313 28.7724 519.94 30.5511 514.592C38.193 491.618 47.2003 469.162 47.2003 469.162C47.2003 469.162 63.0025 458.222 68.6751 450.929C74.3477 443.636 105.547 437.963 105.547 437.963C114.461 438.368 134.721 472.809 142.824 483.344C150.928 493.879 147.686 532.777 147.686 532.777Z" fill="#3F3D56"/>
<path d="M102.305 471.188C104.319 471.188 105.952 469.555 105.952 467.541C105.952 465.527 104.319 463.895 102.305 463.895C100.291 463.895 98.6582 465.527 98.6582 467.541C98.6582 469.555 100.291 471.188 102.305 471.188Z" fill="#2F2E41"/>
<path d="M107.977 473.618C109.096 473.618 110.003 472.711 110.003 471.592C110.003 470.473 109.096 469.566 107.977 469.566C106.858 469.566 105.951 470.473 105.951 471.592C105.951 472.711 106.858 473.618 107.977 473.618Z" fill="#2F2E41"/>
<path d="M141.421 550.641C139.736 555.43 137.835 560.815 135.878 566.306L25.5703 530.439C27.0695 525.313 28.7713 519.94 30.55 514.592L141.421 550.641Z" fill="#F2F2F2"/>
<path d="M132.079 576.957C130.069 582.569 128.116 587.958 126.41 592.585L20.0447 557.998C19.9393 554.072 20.9401 548.225 22.6136 541.365L132.079 576.957Z" fill="#F2F2F2"/>
<path d="M102.305 468.352C102.305 468.352 110.408 504.008 105.546 535.612C100.684 567.217 117.702 596.796 117.702 596.796" stroke="#2F2E41" stroke-width="3" stroke-miterlimit="10"/>
<path d="M107.979 471.188C107.979 471.188 92.1764 528.724 91.7712 536.828C91.366 544.931 84.883 602.873 76.7793 608.951" stroke="#2F2E41" stroke-width="3" stroke-miterlimit="10"/>
<path d="M152.56 64.7426C152.56 64.7426 146.232 48.2886 155.408 42.9094L157.94 50.1872C157.94 50.1872 181.038 36.2646 187.05 39.4288L181.355 47.0229C181.355 47.0229 208.251 47.0229 210.149 57.4649L200.657 57.7814C200.657 57.7814 210.782 64.4262 211.099 75.1846L190.848 76.4503L200.657 82.1459C200.657 82.1459 163.952 87.2087 155.092 72.6532L152.56 64.7426Z" fill="#2F2E41"/>
<path d="M147.078 65.3935C147.078 65.3935 154.371 79.9802 164.096 76.3335C173.82 72.6868 164.096 59.3157 164.096 59.3157L157.613 56.0742L147.078 65.3935Z" fill="#2F2E41"/>
<path d="M776 295.514L643.75 130.25C637.745 135.742 630.346 139.478 622.362 141.05C597.464 145.953 573.15 128.951 568.054 103.075C566.297 94.5169 566.911 85.6419 569.829 77.4075C572.747 69.1731 577.859 61.892 584.612 56.3501L539.518 0L282.615 219.563L519.097 515.077L776 295.514Z" fill="#F2F2F2"/>
<path d="M611.674 133.198C632.265 133.198 648.958 116.506 648.958 95.9145C648.958 75.3233 632.265 58.6309 611.674 58.6309C591.083 58.6309 574.391 75.3233 574.391 95.9145C574.391 116.506 591.083 133.198 611.674 133.198Z" fill="#F2F2F2"/>
<path d="M687.001 399.811V400.835C686.977 403.405 686.904 405.964 686.78 408.512C684.562 452.108 665.755 493.205 634.212 523.381C602.669 553.557 560.78 570.527 517.129 570.812C473.477 571.098 431.369 554.678 399.435 524.917C367.5 495.156 348.156 454.308 345.369 410.745C345.136 407.128 345.02 403.483 345.02 399.811C344.958 364.396 355.95 329.845 376.461 300.974C378.101 298.648 379.807 296.364 381.579 294.123C382.8 292.564 384.057 291.04 385.325 289.528C414.189 255.333 455.307 233.813 499.856 229.586C544.405 225.358 588.836 238.76 623.618 266.916C625.677 268.579 627.701 270.3 629.678 272.057C631.26 273.464 632.815 274.903 634.342 276.372C664.429 305.151 682.948 343.943 686.407 385.434C686.803 390.18 687.001 394.972 687.001 399.811Z" fill="#3F3D56"/>
<path d="M381.579 294.122C381.663 294.157 381.741 294.204 381.812 294.261C382.731 295.018 381.579 296.472 381.719 297.67C381.882 299.205 383.929 299.542 385.476 299.694C387.023 299.856 388.977 301.101 388.244 302.474C384.359 303.811 380.428 302.497 376.461 300.973C355.95 329.844 344.958 364.395 345.02 399.81C345.02 403.486 345.136 407.131 345.369 410.744C345.694 410.982 346.05 411.173 346.427 411.314C347.59 411.756 348.94 411.675 350.01 412.303C350.859 412.803 351.429 413.687 352.278 414.153C354.709 415.479 358.083 412.931 360.351 414.513C360.937 415.047 361.492 415.614 362.014 416.211C364.108 418.026 367.551 416.805 369.971 418.166C371.529 419.038 372.332 420.783 373.169 422.365C375.251 426.32 378.625 430.205 383.08 430.519C384.485 430.454 385.893 430.501 387.291 430.658C388.663 430.972 390.012 432.17 389.791 433.555C389.408 435.939 390.582 438.545 390.268 440.929C389.698 445.291 383.522 447.199 382.998 451.561C382.997 452.521 382.942 453.48 382.835 454.434C382.556 455.574 381.696 456.505 381.393 457.645C380.812 459.797 382.359 461.948 384.045 463.391C385.743 464.845 387.767 466.101 388.698 468.125C389.675 470.277 389.198 472.778 389.512 475.116C390.21 480.222 394.619 484.003 399.155 486.445C400.609 487.053 401.9 487.993 402.924 489.191C404.087 490.877 403.971 493.099 404.366 495.111C405.32 500.032 409.461 504.091 409.577 509.105C409.659 512.676 407.681 515.909 406.495 519.271C405.274 522.795 404.912 526.559 405.436 530.252C412.069 535.877 419.119 540.99 426.525 545.548C426.928 544.952 427.223 544.291 427.398 543.593C427.538 542.822 427.441 542.027 427.119 541.312C426.797 540.597 426.265 539.997 425.595 539.592C426.845 539.12 427.982 538.391 428.933 537.452C429.4 536.971 429.709 536.359 429.817 535.697C429.925 535.036 429.828 534.357 429.538 533.753C431.585 534.009 434.016 534.137 435.366 532.566C436.447 531.31 436.378 529.426 435.947 527.832C435.356 526.283 434.966 524.664 434.784 523.016C439.527 523.247 444.281 523.088 448.998 522.539C448.316 520.239 446.764 518.294 444.671 517.119C446.811 516.758 448.754 514.199 449.429 512.14C450.012 510.04 450.044 507.824 449.522 505.708C449.36 505.164 449.336 504.588 449.452 504.033C449.796 503.295 450.401 502.711 451.15 502.393C454.686 500.357 458.222 498.326 461.759 496.298C462.389 495.979 462.963 495.559 463.457 495.053C464.562 493.739 464.399 491.773 463.829 490.156C463.259 488.539 462.352 487.015 462.131 485.317C461.479 480.234 466.923 476.581 468.761 471.789C469.386 469.876 469.723 467.881 469.761 465.868C469.913 463.705 469.924 461.204 468.272 459.82C466.679 458.482 464.201 458.784 462.538 457.54C461.014 456.4 460.491 454.201 458.827 453.283C457.315 452.445 455.431 452.98 453.744 452.585C450.79 451.898 448.928 448.49 445.904 448.176C444.206 447.99 442.275 448.828 440.879 447.839C439.646 446.955 439.6 445.198 439.367 443.709C438.954 441.39 437.841 439.253 436.177 437.586C434.514 435.918 432.379 434.799 430.061 434.381C428.305 434.101 426.397 434.206 424.897 433.241C423.385 432.264 422.698 430.437 421.5 429.076C419.593 426.901 416.568 426.122 413.742 425.459C409.903 424.563 406.068 423.664 402.238 422.76C400.202 422.272 397.573 422.016 396.468 423.807C396.141 424.488 395.914 425.213 395.793 425.959C395.378 427.301 394.549 428.478 393.426 429.322C392.302 430.166 390.941 430.634 389.536 430.658C388.574 429.016 387.015 427.808 385.185 427.285C383.989 427.084 382.808 426.804 381.649 426.448C381.044 426.151 380.505 425.734 380.067 425.222C379.628 424.711 379.299 424.115 379.098 423.471C378.898 422.828 378.831 422.15 378.902 421.48C378.972 420.81 379.179 420.161 379.509 419.573C380.168 418.393 380.422 417.028 380.231 415.689C380.04 414.351 379.414 413.112 378.45 412.163C376.496 410.407 373.669 409.977 371.041 410.151C370.354 408.651 371.506 406.964 372.739 405.871C373.984 404.789 375.484 403.719 375.752 402.09C376.182 399.531 372.913 397.589 370.436 398.345C367.958 399.112 366.376 401.52 365.329 403.893C364.822 405.293 364.129 406.619 363.27 407.836C362.83 408.438 362.232 408.907 361.543 409.19C360.853 409.474 360.098 409.561 359.362 409.442C357.315 408.918 356.536 406.487 356.082 404.44C355.355 401.704 354.987 398.884 354.988 396.053C355.006 393.194 356.142 390.455 358.152 388.423C361.537 385.305 366.748 385.608 371.32 386.108C370.83 385.455 370.595 384.645 370.66 383.832C370.724 383.018 371.083 382.256 371.669 381.688C372.281 381.144 373.016 380.759 373.81 380.564C374.605 380.37 375.435 380.372 376.229 380.571C377.607 380.856 378.848 381.598 379.753 382.676C381.056 384.258 381.428 386.41 382.405 388.202C383.394 390.005 385.604 391.54 387.407 390.574C388.977 389.737 389.221 387.573 388.838 385.84C388.442 384.119 387.616 382.432 387.756 380.664C388.023 377.302 391.525 375.267 394.607 373.883C397.69 372.498 401.214 370.626 401.703 367.276C401.725 366.624 401.851 365.98 402.075 365.368C402.416 364.821 402.893 364.372 403.459 364.065C412.451 358.121 421.605 352.096 431.888 348.85C432.423 348.676 432.481 348.862 433.028 348.734C433.795 348.292 433.284 347.071 432.551 346.582C431.818 346.094 430.841 345.71 430.655 344.849C430.527 344.221 430.899 343.593 430.992 342.953C431.016 342.567 430.945 342.18 430.786 341.827C430.626 341.475 430.382 341.167 430.075 340.93C429.769 340.694 429.409 340.536 429.027 340.471C428.646 340.406 428.254 340.435 427.886 340.557C427.06 339.463 428.689 338.196 430.015 337.823C433.985 336.736 438.06 336.073 442.17 335.846C442.645 335.768 443.132 335.849 443.555 336.079C443.857 336.37 444.036 336.766 444.056 337.186C444.075 337.606 443.933 338.017 443.659 338.335C443.1 338.957 442.48 339.522 441.81 340.022C441.142 340.67 440.666 341.489 440.432 342.389C440.198 343.29 440.216 344.237 440.484 345.128C442.636 346.222 444.962 347.35 447.347 346.966C449.72 346.582 451.825 343.907 450.708 341.778C449.673 339.789 446.544 339.335 446.009 337.16C445.381 334.613 448.987 332.345 448.172 329.855C447.823 328.762 446.73 328.111 445.893 327.331C444.907 326.361 444.237 325.116 443.969 323.759C443.701 322.402 443.849 320.996 444.392 319.724C443.03 319.962 441.631 319.871 440.312 319.458C438.993 319.045 437.791 318.323 436.808 317.351C434.993 315.525 433.551 312.628 430.969 312.721C428.607 312.791 426.572 315.548 424.362 314.711C423.815 314.501 423.245 314.082 422.722 314.327C422.549 314.438 422.404 314.586 422.297 314.762C422.19 314.937 422.125 315.134 422.105 315.339C421.547 318.026 422.512 321.085 421.047 323.411C419.453 325.935 415.766 326.284 413.835 328.564C412.788 329.797 412.381 331.461 411.415 332.763C410.45 334.066 408.414 334.904 407.251 333.764C407.821 332.596 407.977 331.269 407.694 330.001C407.41 328.733 406.705 327.599 405.692 326.785C404.621 326.081 403.464 325.518 402.249 325.11C400.893 324.537 399.602 323.819 398.399 322.969C397.8 322.604 397.313 322.081 396.992 321.457C396.738 320.673 396.771 319.823 397.085 319.061C397.674 317.381 398.709 315.893 400.08 314.758C401.452 313.622 403.106 312.882 404.866 312.617C406.402 312.407 408.193 312.477 409.217 311.302C409.752 310.686 410.031 309.744 410.822 309.499C411.32 309.395 411.839 309.457 412.299 309.674C414.219 310.349 416.126 311.023 418.046 311.698C418.685 311.991 419.392 312.108 420.093 312.035C420.44 311.99 420.757 311.815 420.979 311.545C421.202 311.275 421.313 310.93 421.291 310.581C421.105 309.627 419.639 309.174 419.779 308.208C419.847 307.893 420.014 307.608 420.256 307.394C422.33 305.187 424.867 303.467 427.684 302.354C430.501 301.242 433.53 300.767 436.552 300.962C437.273 302.16 436.133 303.567 435.168 304.579C434.214 305.603 433.446 307.417 434.609 308.197C435.079 308.443 435.604 308.563 436.133 308.546C437.548 308.735 438.922 309.152 440.205 309.779C442.194 310.639 444.148 311.593 446.055 312.617C445.775 311.37 445.823 310.071 446.195 308.848C446.405 308.248 446.831 307.747 447.39 307.444C447.95 307.141 448.602 307.057 449.219 307.208C450.359 307.65 450.941 309.162 452.162 309.302C453.779 309.488 454.419 307.092 453.744 305.603C453.07 304.114 451.72 302.881 451.616 301.241C451.534 300.147 451.953 298.786 451.08 298.123C450.77 297.918 450.415 297.79 450.045 297.751C442.74 296.413 435.432 295.072 428.119 293.726C426.816 293.482 424.943 293.668 424.885 294.983C424.85 295.727 425.513 296.46 425.223 297.135C424.908 297.856 423.885 297.798 423.14 298.054C422.581 298.307 422.12 298.736 421.826 299.276C421.532 299.815 421.422 300.435 421.512 301.043C421.711 302.253 422.18 303.402 422.884 304.405C421.454 303.811 419.302 303.707 417.871 303.102C417.663 301.445 417.241 299.823 416.615 298.275C416.579 298.028 416.49 297.793 416.353 297.585C416.217 297.376 416.036 297.201 415.824 297.07C415.612 296.939 415.375 296.856 415.127 296.827C414.88 296.798 414.629 296.824 414.393 296.902C412.509 297.193 410.624 297.472 408.74 297.763C408.267 297.785 407.814 297.961 407.449 298.263C406.716 299.042 407.437 300.287 407.414 301.357C407.346 301.955 407.093 302.518 406.691 302.966C406.288 303.414 405.757 303.726 405.169 303.858C403.985 304.098 402.763 304.082 401.586 303.811C398.946 303.404 396.317 302.997 393.677 302.59C396.007 301.847 398.08 300.46 399.655 298.589C400.702 297.356 401.261 295.053 399.748 294.471C399.302 294.348 398.836 294.313 398.376 294.366C394.793 294.39 391.967 291.4 388.617 290.132C387.563 289.739 386.449 289.535 385.325 289.527L381.579 294.122Z" fill="#3B82F6"/>
<path d="M686.779 408.511C686.369 409.062 685.83 409.504 685.209 409.798C684.589 410.092 683.906 410.229 683.22 410.198C679.579 409.884 678.043 404.638 674.438 404.045C674.119 403.963 673.781 403.996 673.484 404.138C672.949 404.428 672.856 405.15 672.821 405.754C672.67 408.755 672.542 411.873 673.716 414.641C675.426 418.689 679.858 422.086 678.928 426.378C673.926 424.063 671.32 418.445 670.145 413.059C668.959 407.674 668.773 402.021 666.656 396.926C665.039 398.985 661.666 397.286 660.2 395.123C658.804 393.076 657.943 390.703 656.594 388.621C655.245 386.55 653.174 384.689 650.708 384.573C648.114 384.456 645.858 386.236 643.88 387.923C642.16 389.193 640.716 390.8 639.635 392.645C638.25 395.437 638.611 398.717 638.541 401.823C638.471 405.173 637.762 408.721 635.47 411.187C633.179 413.641 628.956 414.502 626.432 412.28C625.212 411.008 624.342 409.441 623.908 407.732C621.164 399.735 618.88 391.587 617.069 383.328C616.65 385.212 614.986 387.643 613.404 386.538C613.051 386.238 612.765 385.865 612.567 385.445C609.612 380.455 604.157 377.454 598.632 375.651C593.118 373.86 587.314 373.022 581.859 371.045C578.799 369.934 575.876 368.478 573.146 366.706C572.453 367.727 572.048 368.917 571.974 370.149C571.9 371.382 572.161 372.611 572.727 373.708C573.34 374.782 574.291 375.622 575.431 376.1C576.571 376.577 577.837 376.665 579.032 376.349C580.242 375.953 581.265 375.116 582.463 374.697C583.661 374.29 585.278 374.488 585.802 375.651C586.314 376.756 585.546 378.094 585.93 379.257C586.5 381.013 589.163 381.153 590.094 382.758C590.367 383.394 590.43 384.1 590.273 384.774C590.116 385.448 589.748 386.054 589.222 386.504C588.151 387.376 586.97 388.104 585.709 388.667C581.8 390.842 579.02 394.553 575.6 397.438C572.181 400.334 567.353 402.439 563.282 400.59C564.248 395.67 558.397 392.064 557.315 387.167C556.954 385.55 557.141 383.84 556.64 382.269C555.908 379.99 553.884 378.431 552.232 376.709C550.225 374.596 548.661 372.102 547.633 369.376C546.604 366.649 546.131 363.744 546.241 360.832C546.334 358.808 546.707 356.749 546.241 354.771C545.788 352.806 544.148 350.898 542.124 350.979C537.506 351.189 531.678 351.538 529.259 347.594C528.386 346.187 528.014 344.128 529.27 343.046C529.761 342.735 530.309 342.524 530.882 342.427C531.455 342.329 532.042 342.346 532.609 342.476C536.087 342.814 539.553 343.163 543.031 343.5C545.462 343.733 548.091 343.93 550.185 342.662C552.278 341.395 553.186 338.01 551.243 336.509C549.836 335.416 547.3 335.474 546.881 333.741C546.544 332.287 548.149 330.647 547.277 329.425C546.66 328.565 545.264 328.797 544.415 329.449C543.674 330.218 542.869 330.922 542.007 331.554C540.344 332.415 538.366 331.589 536.575 331.03C534.784 330.472 532.388 330.426 531.527 332.089C530.55 333.938 532.376 336.381 531.422 338.242C530.143 340.697 525.839 339.301 524.047 341.418C522 343.837 525.443 347.467 524.757 350.561C523.873 350.999 522.891 351.2 521.906 351.145C520.922 351.09 519.968 350.781 519.139 350.247C518.325 349.693 517.676 348.929 517.263 348.036C516.849 347.143 516.685 346.154 516.789 345.175C516.952 343.779 517.685 342.348 517.196 341.034C516.669 340.019 515.8 339.223 514.742 338.789C511.369 336.916 507.995 335.051 504.622 333.194C503.68 334.939 504.866 337.091 506.355 338.405C507.832 339.708 509.694 340.697 510.671 342.418C511.289 343.611 511.429 344.996 511.062 346.288C510.694 347.581 509.847 348.685 508.693 349.374C508.547 349.475 508.381 349.542 508.206 349.572C508.032 349.602 507.853 349.594 507.681 349.549C507.52 349.454 507.379 349.328 507.267 349.178C507.156 349.028 507.075 348.858 507.03 348.676C505.25 344.105 502.563 339.603 498.283 337.219C493.99 334.822 487.837 335.323 485.022 339.336C484.359 340.289 483.905 341.383 483.324 342.395C480.241 347.757 473.611 350.293 467.423 350.13C466.818 350.169 466.214 350.027 465.69 349.723C464.689 349.037 464.736 347.571 464.887 346.361C465.108 344.651 465.317 342.953 465.538 341.243C465.544 340.199 465.947 339.197 466.667 338.44C467.818 337.533 469.47 338.103 470.936 338.079C472.042 338.03 473.106 337.641 473.982 336.964C474.859 336.287 475.505 335.357 475.833 334.299C476.128 333.232 476.125 332.104 475.826 331.038C475.527 329.972 474.942 329.008 474.135 328.25C473.472 327.622 472.576 326.831 472.925 325.982C473.067 325.748 473.258 325.548 473.485 325.395C473.712 325.243 473.969 325.141 474.239 325.098C476.856 324.342 479.636 324.144 482.207 323.237C484.789 322.341 487.29 320.503 487.907 317.84C488.093 317.025 488.174 316.037 488.907 315.63C489.277 315.481 489.672 315.402 490.07 315.397C491.469 315.197 492.742 314.48 493.64 313.389C494.537 312.298 494.994 310.911 494.921 309.5C496.154 308.639 497.887 309.279 499.085 310.197C500.272 311.116 501.33 312.326 502.784 312.722C505.494 313.466 508.112 311.058 510.927 311.047C512.113 311.047 513.334 311.465 514.439 311.058C515.568 310.651 516.242 309.534 517.103 308.709C517.976 307.871 519.488 307.371 520.29 308.267C520.058 306.58 519.837 304.905 519.604 303.23C520.974 303.575 522.403 303.623 523.793 303.37C525.184 303.117 526.504 302.57 527.665 301.764C524.734 300.776 521.814 299.787 518.883 298.798C518.575 298.722 518.291 298.57 518.057 298.356C517.417 297.67 518.057 296.6 518.569 295.82C519.813 293.948 520.023 290.865 517.976 289.935C516.58 289.295 514.986 290.063 513.648 290.807C511.508 291.993 509.368 293.192 507.228 294.378C507.03 295.599 508.519 296.297 509.438 297.112C509.998 297.608 510.394 298.263 510.575 298.989C510.756 299.716 510.712 300.48 510.45 301.181C510.188 301.882 509.72 302.488 509.108 302.918C508.495 303.348 507.767 303.582 507.018 303.591C507.44 304.141 507.733 304.779 507.876 305.457C508.019 306.135 508.008 306.837 507.844 307.511C506.413 307.615 504.971 307.72 503.529 307.825C503.289 307.872 503.042 307.872 502.803 307.824C502.563 307.776 502.336 307.682 502.133 307.545C501.668 307.138 501.737 306.417 501.621 305.812C501.429 305.089 501.025 304.44 500.462 303.949C499.898 303.458 499.2 303.146 498.457 303.055C496.975 302.889 495.475 303.027 494.049 303.463C493.428 303.681 492.75 303.665 492.141 303.416C491.796 303.188 491.534 302.853 491.396 302.462C491.143 301.665 491.1 300.815 491.271 299.996C491.443 299.177 491.822 298.416 492.374 297.786C493.491 296.546 494.721 295.412 496.049 294.401C499.059 291.766 501.271 288.341 502.435 284.514C504.808 283.514 507.263 282.164 509.647 281.164C511.564 280.276 513.573 279.601 515.638 279.152C517.581 278.855 519.549 278.761 521.512 278.873C524.187 278.919 526.874 278.966 529.549 279.024C531.938 278.923 534.324 279.267 536.587 280.036C538.785 280.943 540.728 282.909 540.879 285.282C540.925 285.552 540.901 285.83 540.809 286.088C540.717 286.347 540.561 286.578 540.356 286.759C540.047 286.93 539.696 287.01 539.344 286.992C537.122 287.061 536.18 287.62 533.958 287.701C535.365 289.202 536.947 290.784 538.995 291.051C542.601 291.516 545.194 287.783 546.858 284.537C546.917 285.363 547.297 286.133 547.917 286.683C548.536 287.233 549.346 287.519 550.173 287.48C551.064 287.327 551.915 286.995 552.674 286.503C559.828 282.593 567.843 280.523 575.996 280.478C575.916 279.86 576.068 279.235 576.423 278.724C576.777 278.212 577.309 277.851 577.915 277.709C579.579 277.384 581.068 278.814 581.87 280.303C582.661 281.792 583.161 283.514 584.441 284.63C585.709 285.747 588.163 285.689 588.663 284.084C589.152 282.537 587.535 281.211 586.197 280.292C584.848 279.384 583.44 277.698 584.348 276.348C591.187 274.825 598.085 273.312 605.099 273.01C606.291 273.046 607.478 272.84 608.589 272.405C609.139 272.172 609.596 271.764 609.891 271.245C610.185 270.726 610.3 270.123 610.217 269.532C608.687 269.889 607.085 269.784 605.614 269.229C604.144 268.674 602.871 267.694 601.959 266.415C609.159 265.821 616.696 265.298 623.617 266.915L629.678 272.056C628.526 273.254 626.991 274.383 627.828 275.581C628.105 275.856 628.44 276.065 628.808 276.192C629.177 276.319 629.57 276.36 629.957 276.313C631.422 276.337 632.888 276.372 634.342 276.372C664.429 305.151 682.948 343.943 686.407 385.433C683.964 385.34 681.719 388.434 682.033 391.133C682.406 394.262 684.662 396.774 686.279 399.473C686.547 399.912 686.787 400.366 687 400.834L686.779 408.511Z" fill="#3B82F6"/>
<path d="M366.353 80.0248C374.502 80.0248 381.109 73.4185 381.109 65.2692C381.109 57.12 374.502 50.5137 366.353 50.5137C358.204 50.5137 351.598 57.12 351.598 65.2692C351.598 73.4185 358.204 80.0248 366.353 80.0248Z" stroke="#3F3D56" stroke-width="2" stroke-miterlimit="10"/>
<path d="M802.353 361.025C810.502 361.025 817.109 354.419 817.109 346.269C817.109 338.12 810.502 331.514 802.353 331.514C794.204 331.514 787.598 338.12 787.598 346.269C787.598 354.419 794.204 361.025 802.353 361.025Z" stroke="#3F3D56" stroke-width="2" stroke-miterlimit="10"/>
<path d="M701.619 214.025C709.768 214.025 716.374 207.418 716.374 199.269C716.374 191.12 709.768 184.514 701.619 184.514C693.47 184.514 686.863 191.12 686.863 199.269C686.863 207.418 693.47 214.025 701.619 214.025Z" stroke="#3F3D56" stroke-width="2" stroke-miterlimit="10"/>
<path d="M604.807 340.481C613.952 340.481 621.366 333.068 621.366 323.922C621.366 314.777 613.952 307.363 604.807 307.363C595.662 307.363 588.248 314.777 588.248 323.922C588.248 333.068 595.662 340.481 604.807 340.481Z" fill="#3F3D56"/>
<path d="M658 292.525C670.055 292.525 679.827 282.752 679.827 270.697C679.827 258.642 670.055 248.869 658 248.869C645.945 248.869 636.172 258.642 636.172 270.697C636.172 282.752 645.945 292.525 658 292.525Z" fill="white"/>
<path d="M680.073 248.069C674.215 242.354 666.325 239.2 658.142 239.301C649.958 239.403 642.149 242.751 636.434 248.609C624.532 260.809 607.541 322.42 607.541 322.42C607.541 322.42 668.712 303.908 680.614 291.708C686.329 285.85 689.483 277.961 689.381 269.777C689.28 261.593 685.932 253.784 680.073 248.069V248.069ZM648.012 280.934C645.987 278.959 644.594 276.428 644.008 273.661C643.421 270.894 643.669 268.015 644.719 265.389C645.769 262.762 647.574 260.506 649.906 258.906C652.238 257.306 654.993 256.433 657.821 256.398C660.649 256.363 663.424 257.167 665.795 258.709C668.167 260.251 670.027 262.462 671.142 265.062C672.256 267.661 672.575 270.533 672.058 273.314C671.54 276.094 670.21 278.659 668.235 280.684C665.586 283.399 661.968 284.95 658.175 284.997C654.383 285.044 650.727 283.583 648.012 280.934V280.934Z" fill="#57B894"/>
</g>
<defs>
<clipPath id="clip0">
<rect width="888" height="637.962" fill="white"/>
</clipPath>
</defs>
</svg>
